<svg width="28" height="25" viewBox="0 0 28 25" fill="none" xmlns="http://www.w3.org/2000/svg">
<path d="M13.497 6.46216C9.66561 6.46216 6.56177 9.17177 6.56177 12.5136C6.56177 15.8568 9.66561 18.5664 13.497 18.5664C17.3255 18.5664 20.4323 15.8568 20.4323 12.5136C20.4323 9.17177 17.3255 6.46216 13.497 6.46216ZM13.497 16.4458C11.0083 16.4458 8.99054 14.6852 8.99054 12.5149C8.99054 10.3433 11.0083 8.58403 13.497 8.58403C15.9858 8.58403 18.0005 10.3433 18.0005 12.5149C18.0005 14.6852 15.9858 16.4458 13.497 16.4458Z" fill="#484848"/>
<path d="M20.7084 7.65063C21.6016 7.65063 22.3256 7.01888 22.3256 6.23956C22.3256 5.46025 21.6016 4.82849 20.7084 4.82849C19.8153 4.82849 19.0912 5.46025 19.0912 6.23956C19.0912 7.01888 19.8153 7.65063 20.7084 7.65063Z" fill="#484848"/>
<path d="M26.2994 4.80489C25.5958 3.22231 24.1632 1.97091 22.3495 1.3596C21.3009 1.01533 20.1922 0.830766 19.0701 0.809822C17.6255 0.754844 17.1679 0.739136 13.5045 0.739136C9.84109 0.739136 9.37154 0.739136 7.93888 0.809822C6.81976 0.829457 5.71113 1.01403 4.66252 1.3596C2.84732 1.97091 1.41466 3.22231 0.712579 4.80489C0.318035 5.72119 0.106512 6.68723 0.0840093 7.66637C0.0195022 8.92562 0 9.32487 0 12.5228C0 15.7193 -1.11771e-08 16.1264 0.0840093 17.3791C0.106512 18.3583 0.318035 19.3243 0.712579 20.2419C1.41616 21.8232 2.84882 23.0746 4.66402 23.6872C5.70813 24.0433 6.81676 24.2449 7.94188 24.2763C9.38654 24.3312 9.84409 24.3483 13.5075 24.3483C17.1709 24.3483 17.6405 24.3483 19.0731 24.2763C20.1937 24.2566 21.3024 24.0708 22.3525 23.7278C24.1662 23.1139 25.5988 21.8638 26.3024 20.2812C26.697 19.3649 26.9085 18.3989 26.931 17.4197C26.9955 16.1605 27.015 15.7612 27.015 12.5633C27.015 9.36545 27.015 8.95966 26.931 7.70694C26.9115 6.71472 26.7015 5.73166 26.2994 4.80489ZM24.4722 17.2823C24.4617 18.0363 24.3057 18.7837 24.0057 19.4919C23.5481 20.5221 22.6165 21.3363 21.4374 21.7316C20.6348 21.9921 19.7887 22.1282 18.9321 22.1387C17.5069 22.1963 17.1049 22.2107 13.4505 22.2107C9.79309 22.2107 9.41955 22.2107 7.96738 22.1387C7.11379 22.1295 6.2647 21.9921 5.46361 21.7316C4.27998 21.3376 3.34237 20.5234 2.88482 19.4919C2.59079 18.7929 2.43177 18.0533 2.41827 17.3072C2.35376 16.0636 2.33876 15.7128 2.33876 12.5241C2.33876 9.33403 2.33876 9.00809 2.41827 7.73967C2.42877 6.98568 2.58479 6.23955 2.88482 5.53139C3.34237 4.49858 4.27998 3.6857 5.46361 3.29038C6.2647 3.0312 7.11379 2.89375 7.96738 2.88328C9.39404 2.82699 9.79459 2.81128 13.4505 2.81128C17.1064 2.81128 17.4814 2.81128 18.9321 2.88328C19.7887 2.89244 20.6348 3.02989 21.4374 3.29038C22.6165 3.687 23.5481 4.5012 24.0057 5.53139C24.2997 6.23039 24.4587 6.96998 24.4722 7.71611C24.5367 8.96097 24.5532 9.31047 24.5532 12.5005C24.5532 15.6892 24.5532 16.0322 24.4887 17.2836H24.4722V17.2823Z" fill="#484848"/>
</svg>
