<svg width="56" height="35" viewBox="0 0 56 35" fill="none" xmlns="http://www.w3.org/2000/svg">
<line x1="20.5" y1="6" x2="20.5" y2="13" stroke="#484848"/>
<line x1="0.5" y1="21" x2="0.5" y2="35" stroke="#484848"/>
<line x1="24.5" y1="23" x2="24.5" y2="32" stroke="#484848"/>
<line x1="20.5" y1="23" x2="20.5" y2="32" stroke="#484848"/>
<line x1="28.5" y1="23" x2="28.5" y2="32" stroke="#484848"/>
<line x1="26.5" y1="6" x2="26.5" stroke="#484848"/>
<line x1="27" y1="0.5" x2="29" y2="0.5" stroke="#484848"/>
<line x1="29.5" y1="6" x2="29.5" stroke="#484848"/>
<line x1="32.5" y1="23" x2="32.5" y2="32" stroke="#484848"/>
<line x1="36.5" y1="23" x2="36.5" y2="32" stroke="#484848"/>
<line x1="55.5" y1="21" x2="55.5" y2="35" stroke="#484848"/>
<line x1="35.5" y1="6" x2="35.5" y2="13" stroke="#484848"/>
<line x1="15.5" y1="13" x2="15.5" y2="21" stroke="#484848"/>
<line x1="40.5" y1="13" x2="40.5" y2="21" stroke="#484848"/>
<line x1="21" y1="13.5" x2="15" y2="13.5" stroke="#484848"/>
<line x1="40" y1="13.5" x2="35" y2="13.5" stroke="#484848"/>
<line y1="20.5" x2="15" y2="20.5" stroke="#484848"/>
<line x1="20" y1="6.5" x2="27" y2="6.5" stroke="#484848"/>
<line x1="29" y1="6.5" x2="35" y2="6.5" stroke="#484848"/>
<line x1="1" y1="34.5" x2="55" y2="34.5" stroke="#484848"/>
<line x1="41" y1="20.5" x2="56" y2="20.5" stroke="#484848"/>
</svg>
