<svg width="30" height="23" viewBox="0 0 30 23" fill="none" xmlns="http://www.w3.org/2000/svg">
<path d="M0 20.6254C0 21.637 0.675 22.4647 1.5 22.4647H28.5C29.325 22.4647 30 21.637 30 20.6254C30 19.6137 29.325 18.7861 28.5 18.7861H1.5C0.675 18.7861 0 19.6137 0 20.6254ZM0 11.4289C0 12.4405 0.675 13.2682 1.5 13.2682H28.5C29.325 13.2682 30 12.4405 30 11.4289C30 10.4172 29.325 9.58955 28.5 9.58955H1.5C0.675 9.58955 0 10.4172 0 11.4289ZM0 2.23234C0 3.24395 0.675 4.07164 1.5 4.07164H28.5C29.325 4.07164 30 3.24395 30 2.23234C30 1.22072 29.325 0.393036 28.5 0.393036H1.5C0.675 0.393036 0 1.22072 0 2.23234Z" fill="#008C8C"/>
</svg>
