<svg width="30" height="22" viewBox="0 0 30 22" fill="none" xmlns="http://www.w3.org/2000/svg">
<path d="M26.4468 5.5629C26.4663 5.79192 26.4663 6.01964 26.4663 6.24736C26.4663 13.2163 20.3874 21.2466 9.27806 21.2466C5.8554 21.2466 2.67573 20.3815 0 18.8791C0.485951 18.9275 0.953903 18.9445 1.45935 18.9445C4.28356 18.9445 6.8828 18.1122 8.96009 16.6922C6.30386 16.6438 4.07808 15.1257 3.31016 13.037C3.68362 13.0854 4.05859 13.1181 4.45155 13.1181C4.99299 13.1181 5.53744 13.0527 6.04288 12.9388C3.27267 12.4494 1.19838 10.3279 1.19838 7.76547V7.70003C2.0038 8.09134 2.9382 8.33607 3.9281 8.36879C2.30077 7.42389 1.23437 5.80763 1.23437 3.97935C1.23437 3.00042 1.53284 2.10264 2.05629 1.32003C5.03049 4.51723 9.50153 6.60725 14.514 6.83628C14.421 6.44366 14.364 6.03665 14.364 5.62833C14.364 2.72298 17.0578 0.356812 20.4054 0.356812C22.1452 0.356812 23.7156 0.992849 24.8195 2.0215C26.1843 1.79248 27.4922 1.35144 28.6531 0.748118C28.2046 1.97177 27.2492 3.00042 25.9969 3.65347C27.2132 3.53831 28.3921 3.24515 29.475 2.83683C28.6531 3.88119 27.6257 4.81169 26.4468 5.5629Z" fill="#484848"/>
</svg>
